<svg width="50" height="50" viewBox="0 0 50 50" fill="none" xmlns="http://www.w3.org/2000/svg">
<rect width="50" height="50" fill="white"/>
<path d="M37.7785 21.2098C37.7777 13.9683 32.0227 8.16299 25.0021 8.16202C17.9806 8.16202 12.2223 13.9677 12.2215 21.2098C12.2215 24.739 13.7844 28.0853 16.4474 31.6061C18.7726 34.6799 21.7751 37.6778 24.9979 40.9336C28.2216 37.6769 31.2269 34.6805 33.5526 31.6061C36.2156 28.0853 37.7785 24.739 37.7785 21.2098ZM29.6596 20.9426C29.6596 18.3693 27.5753 16.2819 25.0021 16.2809C22.428 16.2809 20.3404 18.3687 20.3404 20.9426C20.3413 23.5158 22.4286 25.6002 25.0021 25.6002C27.5747 25.5992 29.6587 23.5152 29.6596 20.9426ZM41.988 21.2098C41.988 26.0496 39.8291 30.2845 36.9111 34.1425C34.0145 37.9721 30.1544 41.7002 26.5025 45.4185C26.1072 45.8209 25.5661 46.047 25.0021 46.0475C24.4373 46.0475 23.8932 45.8215 23.4975 45.4185C19.8456 41.7003 15.9855 37.9721 13.0889 34.1425C10.171 30.2845 8.01198 26.0495 8.01198 21.2098C8.01285 11.7146 15.5846 3.95253 25.0021 3.95253C34.4187 3.9535 41.9871 11.7152 41.988 21.2098ZM33.8691 20.9426C33.8682 25.8401 29.8995 29.8087 25.0021 29.8097C20.1038 29.8097 16.1318 25.8407 16.1309 20.9426C16.1309 16.0439 20.1032 12.0714 25.0021 12.0714C29.9001 12.0724 33.8691 16.0445 33.8691 20.9426Z" fill="black"/>
</svg>
