<svg width="250" height="100" viewBox="0 0 250 100" fill="none" xmlns="http://www.w3.org/2000/svg">
<rect width="250" height="100"/>
<path d="M17.706 83.8522V21.8127H42.1825C46.888 21.8127 50.8967 22.7113 54.2087 24.5087C57.5207 26.2859 60.0451 28.7598 61.7819 31.9304C63.5389 35.0809 64.4174 38.716 64.4174 42.8358C64.4174 46.9556 63.5288 50.5908 61.7516 53.7412C59.9745 56.8917 57.3996 59.3454 54.027 61.1024C50.6746 62.8593 46.6154 63.7378 41.8493 63.7378H26.2485V53.2262H39.7288C42.2532 53.2262 44.3333 52.7921 45.9691 51.9237C47.6251 51.0351 48.857 49.8133 49.6648 48.2582C50.4928 46.683 50.9068 44.8755 50.9068 42.8358C50.9068 40.7759 50.4928 38.9786 49.6648 37.4437C48.857 35.8887 47.6251 34.6871 45.9691 33.8389C44.3131 32.9705 42.2128 32.5363 39.6682 32.5363H30.8227V83.8522H17.706Z" fill="black"/>
<path d="M142.47 21.8127V83.8522H129.353V21.8127H142.47Z" fill="black"/>
<path d="M164.995 56.9523V83.8522H152.09V37.3226H164.389V45.5319H164.934C165.964 42.8257 167.691 40.685 170.114 39.1098C172.538 37.5144 175.476 36.7167 178.93 36.7167C182.161 36.7167 184.978 37.4235 187.381 38.8372C189.785 40.2509 191.653 42.2704 192.985 44.8957C194.318 47.5009 194.985 50.611 194.985 54.2259V83.8522H182.08V56.5282C182.1 53.6806 181.373 51.4592 179.899 49.8638C178.425 48.2481 176.395 47.4403 173.81 47.4403C172.073 47.4403 170.539 47.8139 169.206 48.5612C167.893 49.3084 166.863 50.3989 166.116 51.8328C165.389 53.2464 165.015 54.9529 164.995 56.9523Z" fill="black"/>
<path d="M229.905 37.3226V47.0162H201.884V37.3226H229.905ZM208.245 26.1748H221.15V69.554C221.15 70.7456 221.332 71.6745 221.695 72.341C222.059 72.9872 222.564 73.4416 223.21 73.7042C223.877 73.9667 224.644 74.098 225.512 74.098C226.118 74.098 226.724 74.0475 227.33 73.9465C227.936 73.8253 228.4 73.7344 228.723 73.6739L230.753 83.2767C230.107 83.4786 229.198 83.7109 228.027 83.9734C226.855 84.2561 225.432 84.4278 223.755 84.4884C220.645 84.6095 217.919 84.1955 215.576 83.2464C213.254 82.2972 211.446 80.823 210.154 78.8236C208.861 76.8243 208.225 74.2999 208.245 71.2504V26.1748Z" fill="black"/>
<path d="M117.108 45.4625C117.107 33.2334 107.388 23.4299 95.5322 23.4283C83.6749 23.4283 73.9507 33.2324 73.9492 45.4625C73.9492 51.4223 76.5885 57.0733 81.0857 63.019C85.0122 68.2097 90.0826 73.2724 95.5252 78.7706C100.969 73.271 106.044 68.2108 109.972 63.019C114.469 57.0733 117.108 51.4223 117.108 45.4625ZM103.398 45.0112C103.398 40.6655 99.8776 37.1405 95.5322 37.1389C91.1853 37.1389 87.6598 40.6645 87.6598 45.0112C87.6614 49.3567 91.1863 52.8766 95.5322 52.8766C99.8766 52.875 103.396 49.3557 103.398 45.0112ZM124.217 45.4625C124.217 53.6356 120.571 60.7871 115.643 67.3023C110.752 73.7694 104.233 80.0652 98.066 86.3444C97.3984 87.024 96.4847 87.4058 95.5322 87.4066C94.5784 87.4066 93.6597 87.0249 92.9914 86.3444C86.8243 80.0653 80.3056 73.7694 75.414 67.3023C70.4865 60.7872 66.8405 53.6354 66.8405 45.4625C66.842 29.4277 79.6287 16.3196 95.5322 16.3196C111.434 16.3212 124.215 29.4287 124.217 45.4625ZM110.506 45.0112C110.505 53.2817 103.803 59.9837 95.5322 59.9853C87.2603 59.9853 80.5527 53.2827 80.5511 45.0112C80.5511 36.7386 87.2592 30.0302 95.5322 30.0302C103.804 30.0318 110.506 36.7396 110.506 45.0112Z" fill="black"/>
</svg>
